<mxfile host="Electron" agent="Mozilla/5.0 (Windows NT 10.0; Win64; x64) AppleWebKit/537.36 (KHTML, like Gecko) draw.io/28.1.2 Chrome/138.0.7204.243 Electron/37.4.0 Safari/537.36" version="28.1.2">
  <diagram name="Page-1" id="929967ad-93f9-6ef4-fab6-5d389245f69c">
    <mxGraphModel dx="1265" dy="609" grid="1" gridSize="10" guides="1" tooltips="1" connect="1" arrows="1" fold="1" page="1" pageScale="1.5" pageWidth="1169" pageHeight="826" background="none" math="0" shadow="0">
      <root>
        <mxCell id="0" style=";html=1;" />
        <mxCell id="1" style=";html=1;" parent="0" />
        <mxCell id="RVUSpZLDKEjHUplUx2T4-1" value="C1" style="rounded=0;whiteSpace=wrap;html=1;" vertex="1" parent="1">
          <mxGeometry x="130" y="400" width="120" height="60" as="geometry" />
        </mxCell>
        <mxCell id="RVUSpZLDKEjHUplUx2T4-2" value="C3" style="rounded=0;whiteSpace=wrap;html=1;" vertex="1" parent="1">
          <mxGeometry x="250" y="400" width="120" height="60" as="geometry" />
        </mxCell>
        <mxCell id="RVUSpZLDKEjHUplUx2T4-3" value="C7" style="rounded=0;whiteSpace=wrap;html=1;" vertex="1" parent="1">
          <mxGeometry x="877" y="460" width="120" height="60" as="geometry" />
        </mxCell>
        <mxCell id="RVUSpZLDKEjHUplUx2T4-4" value="C6" style="rounded=0;whiteSpace=wrap;html=1;" vertex="1" parent="1">
          <mxGeometry x="997" y="460" width="120" height="60" as="geometry" />
        </mxCell>
        <mxCell id="RVUSpZLDKEjHUplUx2T4-5" value="C2" style="rounded=0;whiteSpace=wrap;html=1;" vertex="1" parent="1">
          <mxGeometry x="370" y="625" width="120" height="60" as="geometry" />
        </mxCell>
        <mxCell id="RVUSpZLDKEjHUplUx2T4-7" value="C4" style="rounded=0;whiteSpace=wrap;html=1;" vertex="1" parent="1">
          <mxGeometry x="490" y="625" width="120" height="60" as="geometry" />
        </mxCell>
        <mxCell id="RVUSpZLDKEjHUplUx2T4-8" value="C5" style="rounded=0;whiteSpace=wrap;html=1;" vertex="1" parent="1">
          <mxGeometry x="610" y="625" width="120" height="60" as="geometry" />
        </mxCell>
        <mxCell id="RVUSpZLDKEjHUplUx2T4-9" value="C7" style="rounded=0;whiteSpace=wrap;html=1;" vertex="1" parent="1">
          <mxGeometry x="730" y="625" width="120" height="60" as="geometry" />
        </mxCell>
        <mxCell id="RVUSpZLDKEjHUplUx2T4-10" value="C8" style="rounded=0;whiteSpace=wrap;html=1;" vertex="1" parent="1">
          <mxGeometry x="370" y="400" width="120" height="60" as="geometry" />
        </mxCell>
        <mxCell id="RVUSpZLDKEjHUplUx2T4-11" value="" style="edgeStyle=elbowEdgeStyle;elbow=vertical;endArrow=classic;html=1;curved=0;rounded=0;endSize=8;startSize=8;entryX=0.5;entryY=0;entryDx=0;entryDy=0;" edge="1" parent="1" target="RVUSpZLDKEjHUplUx2T4-2">
          <mxGeometry width="50" height="50" relative="1" as="geometry">
            <mxPoint x="190" y="400" as="sourcePoint" />
            <mxPoint x="240" y="350" as="targetPoint" />
            <Array as="points">
              <mxPoint x="220" y="330" />
            </Array>
          </mxGeometry>
        </mxCell>
        <mxCell id="RVUSpZLDKEjHUplUx2T4-13" value="" style="edgeStyle=segmentEdgeStyle;endArrow=classic;html=1;curved=0;rounded=0;endSize=8;startSize=8;" edge="1" parent="1" target="RVUSpZLDKEjHUplUx2T4-10">
          <mxGeometry width="50" height="50" relative="1" as="geometry">
            <mxPoint x="310" y="330" as="sourcePoint" />
            <mxPoint x="400" y="280" as="targetPoint" />
          </mxGeometry>
        </mxCell>
        <mxCell id="RVUSpZLDKEjHUplUx2T4-14" value="" style="edgeStyle=elbowEdgeStyle;elbow=vertical;endArrow=classic;html=1;curved=0;rounded=0;endSize=8;startSize=8;entryX=0.5;entryY=0;entryDx=0;entryDy=0;" edge="1" parent="1">
          <mxGeometry width="50" height="50" relative="1" as="geometry">
            <mxPoint x="430" y="625" as="sourcePoint" />
            <mxPoint x="550" y="625" as="targetPoint" />
            <Array as="points">
              <mxPoint x="460" y="555" />
            </Array>
          </mxGeometry>
        </mxCell>
        <mxCell id="RVUSpZLDKEjHUplUx2T4-15" value="" style="edgeStyle=segmentEdgeStyle;endArrow=classic;html=1;curved=0;rounded=0;endSize=8;startSize=8;" edge="1" parent="1">
          <mxGeometry width="50" height="50" relative="1" as="geometry">
            <mxPoint x="550" y="555" as="sourcePoint" />
            <mxPoint x="670" y="625" as="targetPoint" />
          </mxGeometry>
        </mxCell>
        <mxCell id="RVUSpZLDKEjHUplUx2T4-16" value="" style="edgeStyle=segmentEdgeStyle;endArrow=classic;html=1;curved=0;rounded=0;endSize=8;startSize=8;" edge="1" parent="1">
          <mxGeometry width="50" height="50" relative="1" as="geometry">
            <mxPoint x="670" y="555" as="sourcePoint" />
            <mxPoint x="790" y="625" as="targetPoint" />
          </mxGeometry>
        </mxCell>
        <mxCell id="RVUSpZLDKEjHUplUx2T4-18" value="" style="edgeStyle=elbowEdgeStyle;elbow=vertical;endArrow=classic;html=1;curved=0;rounded=0;endSize=8;startSize=8;entryX=0.5;entryY=0;entryDx=0;entryDy=0;" edge="1" parent="1">
          <mxGeometry width="50" height="50" relative="1" as="geometry">
            <mxPoint x="940" y="460" as="sourcePoint" />
            <mxPoint x="1060" y="460" as="targetPoint" />
            <Array as="points">
              <mxPoint x="970" y="390" />
            </Array>
          </mxGeometry>
        </mxCell>
      </root>
    </mxGraphModel>
  </diagram>
</mxfile>
